<?xml version="1.0" encoding="UTF-8"?> <svg xmlns="http://www.w3.org/2000/svg" width="80" height="80" viewBox="0 0 80 80" fill="none"> <path d="M49.9443 23.7424L66.4159 23.7424C67.5496 23.7424 68.6146 24.3093 69.2502 25.2369L77.5001 40.1958L77.5002 51.2271C77.5002 53.1166 75.9542 54.6626 74.0646 54.6626H70.629" stroke="#478CC8" stroke-width="2" stroke-miterlimit="10" stroke-linecap="round" stroke-linejoin="round"></path> <path d="M46.2915 54.6625L56.8868 54.6625" stroke="#64B82A" stroke-width="2" stroke-miterlimit="10" stroke-linecap="round" stroke-linejoin="round"></path> <path d="M2.5 40.2252L48.5393 40.2252" stroke="#64B82A" stroke-width="2" stroke-miterlimit="10" stroke-linecap="round" stroke-linejoin="round"></path> <path d="M2.5 70L77.5 70" stroke="#478CC8" stroke-width="2" stroke-miterlimit="10" stroke-linecap="round" stroke-linejoin="round"></path> <path d="M77.5001 40.2251L56.8521 40.2251L56.8521 29.7466" stroke="#478CC8" stroke-width="2" stroke-miterlimit="10" stroke-linecap="round" stroke-linejoin="round"></path> <path d="M29.9514 54.6626H48.5393V10H2.5V54.6626H10.7812" stroke="#64B82A" stroke-width="2" stroke-miterlimit="10" stroke-linecap="round" stroke-linejoin="round"></path> <path d="M24.5054 54.6799C24.5054 58.459 21.4306 61.5339 17.6171 61.5339C13.8036 61.5339 10.7288 58.459 10.7288 54.6799C10.7288 50.9008 13.8036 47.8259 17.6171 47.8259C21.4306 47.8259 24.5054 50.8836 24.5054 54.6799Z" stroke="#478CC8" stroke-width="2" stroke-miterlimit="10" stroke-linecap="round" stroke-linejoin="round"></path> <path d="M70.6285 54.6799C70.6285 58.459 67.5536 61.5339 63.7401 61.5339C59.9266 61.5339 56.8518 58.459 56.8518 54.6799C56.8518 50.9008 59.9266 47.8259 63.7401 47.8259C67.5536 47.8259 70.6285 50.8836 70.6285 54.6799Z" stroke="#478CC8" stroke-width="2" stroke-miterlimit="10" stroke-linecap="round" stroke-linejoin="round"></path> </svg> 