<?xml version="1.0" encoding="UTF-8"?> <svg xmlns="http://www.w3.org/2000/svg" width="80" height="80" viewBox="0 0 80 80" fill="none"> <path d="M10.0696 74.6316C10.9569 71.9008 15.2485 67.729 20.3276 65.8913C25.4067 64.0536 27.8495 64.1709 27.8495 64.1709C27.8495 64.1709 31.2169 69.3612 40.0003 69.3612C48.7837 69.3612 52.1512 64.1709 52.1512 64.1709C52.1512 64.1709 55.2429 64.1636 59.673 65.8913C64.1031 67.6189 69.0437 71.9008 69.931 74.6316" stroke="#64B82A" stroke-width="2" stroke-miterlimit="10" stroke-linecap="round" stroke-linejoin="round"></path> <path d="M22.5222 27.0655V39.7211C22.5222 39.7211 24.7222 55.3989 39.9444 55.3989C55.1667 55.3989 57.3556 39.7211 57.3556 39.7211V27.0655L48.6667 20.5877C40.5849 24.7793 31.626 26.9991 22.5222 27.0655Z" stroke="#478CC8" stroke-width="2" stroke-linecap="round" stroke-linejoin="round"></path> <path d="M60.4889 28.8433V18.521C60.4906 17.1108 60.2023 15.7154 59.642 14.4212C59.0817 13.1271 58.2614 11.962 57.232 10.9982C56.2025 10.0344 54.9859 9.29251 53.6578 8.81859C52.3296 8.34467 50.9182 8.14885 49.5111 8.24327C49.5111 8.24327 33.9222 -3.49007 21.9 12.0655" stroke="#478CC8" stroke-width="2" stroke-linecap="round" stroke-linejoin="round"></path> <path d="M19.1778 28.8433V20.9544C19.1821 19.9044 19.2976 18.8579 19.5222 17.8322" stroke="#478CC8" stroke-width="2" stroke-linecap="round" stroke-linejoin="round"></path> <path d="M32.3666 53.81V61.8877" stroke="#478CC8" stroke-width="2" stroke-linecap="round" stroke-linejoin="round"></path> <path d="M47.5222 53.81V61.8877" stroke="#478CC8" stroke-width="2" stroke-linecap="round" stroke-linejoin="round"></path> <path d="M21.5556 28.8432C20.4741 28.8432 19.4369 29.2728 18.6721 30.0376C17.9074 30.8023 17.4778 31.8395 17.4778 32.921C17.4778 34.0025 17.9074 35.0397 18.6721 35.8044C19.4369 36.5691 20.4741 36.9988 21.5556 36.9988" stroke="#478CC8" stroke-width="2" stroke-linecap="round" stroke-linejoin="round"></path> <path d="M58.4445 36.9988C59.526 36.9988 60.5632 36.5691 61.3279 35.8044C62.0926 35.0397 62.5222 34.0025 62.5222 32.921C62.5222 31.8395 62.0926 30.8023 61.3279 30.0376C60.5632 29.2728 59.526 28.8432 58.4445 28.8432" stroke="#478CC8" stroke-width="2" stroke-linecap="round" stroke-linejoin="round"></path> </svg> 