<?xml version="1.0" encoding="UTF-8"?> <svg xmlns="http://www.w3.org/2000/svg" width="16" height="17" viewBox="0 0 16 17" fill="none"> <path fill-rule="evenodd" clip-rule="evenodd" d="M13.6689 2.33571C12.1646 0.830356 10.1645 0.00114796 8.03348 0C3.6425 0 0.0688781 3.57244 0.0669648 7.96337C0.0665822 9.36694 0.433166 10.7372 1.13037 11.9449L0 16.0718L4.22299 14.9644C5.38665 15.5988 6.69648 15.9333 8.03004 15.9336H8.03348C8.03386 15.9336 8.0331 15.9336 8.03348 15.9336C12.4241 15.9336 15.9981 12.3608 16 7.96988C16.0008 5.84157 15.1727 3.84068 13.6689 2.33571ZM8.03348 14.5882H8.0308C6.84266 14.5878 5.67747 14.2687 4.66075 13.6657L4.41891 13.5222L1.9129 14.1792L2.58178 11.7367L2.42451 11.4865C1.76175 10.4326 1.41162 9.21465 1.412 7.96376C1.41353 4.31402 4.38371 1.34502 8.03616 1.34502C9.8048 1.34579 11.4671 2.03494 12.7172 3.28622C13.9673 4.53749 14.6553 6.2005 14.6546 7.96911C14.6534 11.6189 11.6829 14.5882 8.03348 14.5882ZM11.6653 9.63097C11.4663 9.53148 10.4875 9.05011 10.3049 8.98353C10.1224 8.91694 9.98962 8.88404 9.85722 9.08301C9.72444 9.28238 9.34293 9.73046 9.22699 9.86324C9.11104 9.99602 8.99471 10.0125 8.79573 9.91299C8.59675 9.8135 7.95542 9.60342 7.19508 8.92536C6.6035 8.39768 6.204 7.74603 6.08768 7.54667C5.97135 7.3473 6.07543 7.23978 6.17492 7.14067C6.26446 7.05151 6.3739 6.9084 6.47339 6.79208C6.57288 6.67575 6.60617 6.59271 6.67237 6.45993C6.73857 6.32715 6.70567 6.21083 6.65592 6.11134C6.60618 6.01185 6.20821 5.03226 6.04214 4.63392C5.88066 4.24591 5.7165 4.29833 5.59443 4.29221C5.47849 4.28647 5.34571 4.28532 5.21292 4.28532C5.08014 4.28532 4.86471 4.33507 4.68218 4.53443C4.49965 4.73379 3.98536 5.21517 3.98536 6.19437C3.98536 7.17396 4.69864 8.11988 4.79813 8.25266C4.89762 8.38544 6.20171 10.3955 8.19841 11.2572C8.67328 11.4623 9.04408 11.5848 9.33298 11.6762C9.80977 11.8278 10.2437 11.8064 10.5869 11.7551C10.9692 11.6981 11.7648 11.2737 11.9305 10.8088C12.0961 10.3439 12.0961 9.94551 12.0464 9.86248C11.997 9.78059 11.8643 9.73046 11.6653 9.63097Z" fill="white"></path> </svg> 