<?xml version="1.0" encoding="UTF-8"?> <svg xmlns="http://www.w3.org/2000/svg" width="127" height="40" viewBox="0 0 127 40" fill="none"> <path fill-rule="evenodd" clip-rule="evenodd" d="M9.33178 3.11686C10.4483 3.80296 11.8674 3.96337 13.1689 3.42511C14.4715 2.88635 15.3574 1.77129 15.6533 0.499278C18.5227 -0.151224 21.5569 -0.181 24.5475 0.497939C24.8431 1.77057 25.7291 2.8863 27.0323 3.42527C28.3345 3.96385 29.7546 3.80293 30.8713 3.11581C33.48 4.75912 35.6118 6.9435 37.1758 9.45539C36.4804 10.5579 36.3091 11.9673 36.8385 13.2689C37.3674 14.5695 38.4748 15.4648 39.7448 15.7786C40.3399 18.5081 40.3659 21.3822 39.7462 24.2211C38.4757 24.5346 37.3677 25.4301 36.8385 26.7312C36.3089 28.0334 36.4806 29.4436 37.177 30.5464C35.5506 33.1603 33.3768 35.3027 30.8695 36.8831C29.753 36.1969 28.3338 36.0364 27.0322 36.5747C25.7295 37.1135 24.8436 38.2286 24.5478 39.5007C21.6783 40.1512 18.6441 40.181 15.6535 39.502C15.3579 38.2295 14.4719 37.1138 13.1687 36.5748C11.8666 36.0363 10.4466 36.1972 9.32982 36.8842C6.72117 35.2409 4.58931 33.0565 3.0253 30.5446C3.72075 29.4421 3.89198 28.0327 3.36265 26.7311C2.83371 25.4305 1.72626 24.5352 0.456288 24.2214C-0.138774 21.4919 -0.164794 18.6178 0.454879 15.7789C1.72539 15.4655 2.83341 14.57 3.36253 13.2689C3.89212 11.9666 3.72045 10.5565 3.02411 9.45373C4.65048 6.83969 6.8244 4.69727 9.33178 3.11686ZM20.1007 33.9963C27.8695 33.9963 34.1673 27.7299 34.1673 20C34.1673 12.2701 27.8695 6.00372 20.1007 6.00372C12.3319 6.00372 6.034 12.2701 6.034 20C6.034 27.7299 12.3319 33.9963 20.1007 33.9963ZM15.7791 31.2032V23.9729H24.2191V31.2788C28.8501 29.6043 32.1578 25.1865 32.1578 20C32.1578 13.3744 26.7597 8.00319 20.1007 8.00319C13.4417 8.00319 8.04355 13.3744 8.04355 20C8.04355 25.1103 11.2549 29.4743 15.7791 31.2032ZM24.2191 17.7111C24.2191 15.3921 22.3298 13.5122 19.9991 13.5122C17.6685 13.5122 15.7791 15.3921 15.7791 17.7111C15.7791 20.0301 17.6685 21.91 19.9991 21.91C22.3298 21.91 24.2191 20.0301 24.2191 17.7111Z" fill="white"></path> <path fill-rule="evenodd" clip-rule="evenodd" d="M87.0596 8.61665C87.0596 10.0522 85.89 11.216 84.4472 11.216C83.0044 11.216 81.8348 10.0522 81.8348 8.61665C81.8348 7.18109 83.0044 6.01733 84.4472 6.01733C85.89 6.01733 87.0596 7.18109 87.0596 8.61665ZM81.8349 27.6049L81.8349 12.4938H87.0596L87.0596 27.6049H81.8349ZM96.3768 22.6629C96.4176 26.3536 99.2536 28.1085 103.071 28.1085C107.233 28.1085 109.778 26.517 109.778 22.8949C109.778 21.0387 108.996 19.7422 107.433 19.0051C106.365 18.5036 105.172 18.3012 104.004 18.1029C103.769 18.0631 103.535 18.0234 103.304 17.9815C103.261 17.9718 103.216 17.962 103.169 17.9518L103.169 17.9517C102.542 17.8148 101.603 17.6095 101.603 16.8351C101.603 16.4893 101.731 16.2164 101.987 16.0162C102.564 15.5648 103.612 15.6066 104.168 16.0708C104.451 16.3073 104.593 16.6622 104.593 17.1353H109.49C109.463 15.5976 108.864 14.3647 107.693 13.4367C106.532 12.4995 104.991 12.0309 103.071 12.0309C100.019 12.0309 96.5826 13.5347 96.5826 17.0125C96.5826 17.8802 96.7681 18.7571 97.241 19.4965C97.6517 20.0909 98.2613 20.5466 98.9007 20.875C99.8817 21.363 100.98 21.5782 102.056 21.7484C102.943 21.894 103.596 22.0624 104.017 22.2534C104.756 22.5662 104.891 23.5087 104.223 23.9868C103.568 24.4491 102.515 24.3836 101.905 23.8776C101.576 23.5955 101.411 23.1906 101.411 22.6629H96.3768ZM111.878 21.1201C111.878 25.3846 115.228 28.0944 119.367 28.0944C123.509 28.0944 126.829 25.3789 126.829 21.1201V12.508H121.603V21.1017C121.603 22.2743 120.84 23.4266 119.367 23.4266C117.896 23.4266 117.104 22.2814 117.104 21.1017V12.508H111.878V21.1201ZM94.536 25.488C94.536 26.9353 93.3568 28.1085 91.9023 28.1085C90.4478 28.1085 89.2687 26.9353 89.2687 25.488C89.2687 24.0408 90.4478 22.8676 91.9023 22.8676C93.3568 22.8676 94.536 24.0408 94.536 25.488ZM75.6404 12.4937V7.66987L73.759 7.66989L67.5938 14.3535V16.5527H70.4156V21.4683H70.416C70.3375 23.4185 70.6586 25.1436 72.0337 26.3608C73.346 27.5225 74.5302 27.6142 77.1743 27.6142V27.6142H79.3986V23.0514H77.1565V23.0515C76.3376 23.0403 75.6238 22.2592 75.6405 21.4628H75.6403L75.6403 16.5528H79.3112V12.4937H75.6404ZM61.1183 26.5213C59.818 27.5098 58.2087 28.0943 56.4665 28.0943C52.1446 28.0943 48.6411 24.4973 48.6411 20.0601C48.6411 15.6229 52.1446 12.0259 56.4665 12.0259C58.2428 12.0259 59.8809 12.6335 61.1943 13.6574L61.6274 12.4993H65.6586V27.5969H61.5065L61.1183 26.5213ZM60.7135 20.0538C60.7135 21.9688 59.1897 23.5212 57.31 23.5212C55.4302 23.5212 53.9064 21.9688 53.9064 20.0538C53.9064 18.1388 55.4302 16.5863 57.31 16.5863C59.1897 16.5863 60.7135 18.1388 60.7135 20.0538Z" fill="white"></path> </svg> 